<?xml version="1.0" encoding="utf-8"?>
<!-- Svg Vector Icons : http://www.onlinewebfonts.com/icon -->
<!DOCTYPE svg PUBLIC "-//W3C//DTD SVG 1.1//EN" "http://www.w3.org/Graphics/SVG/1.1/DTD/svg11.dtd">
<svg version="1.1" xmlns="http://www.w3.org/2000/svg" xmlns:xlink="http://www.w3.org/1999/xlink" x="0px" y="0px" viewBox="0 0 1000 1000" enable-background="new 0 0 1000 1000" xml:space="preserve">
<metadata> Svg Vector Icons : http://www.onlinewebfonts.com/icon </metadata>
<g><g transform="translate(0.000000,512.000000) scale(0.100000,-0.100000)"><path d="M3844.6,5000.6c-1204.6-42.1-2165.9-151.3-2623.6-296.8c-206.8-65.1-384.9-201.1-411.7-316c-9.6-46,74.7-1101.1,442.4-5523c90-1083.9,180-2187,201.1-2451.2c21.1-262.4,47.9-511.3,57.5-551.5c68.9-266.2,476.8-409.8,1501.4-528.6c1308-151.3,2656.2-151.3,3964.1,0c1024.5,118.7,1432.4,262.4,1501.4,528.6c9.6,40.2,36.4,289.2,55.5,551.5c21.1,264.3,113,1361.6,203,2441.7s229.8,2767.2,310.2,3749.7l145.5,1784.8l-44,68.9c-95.8,139.8-323.7,249-672.2,321.7C7561.7,4968,5583.5,5063.8,3844.6,5000.6z M5884.1,4542.9c670.3-21.1,1302.2-59.4,1742.7-107.2c266.2-28.7,739.2-97.7,750.7-111.1c32.6-32.6-823.5-134.1-1535.9-183.8c-354.3-24.9-1819.3-57.4-2162.1-46c-137.9,3.8-474.9,11.5-748.8,17.2c-716.2,13.4-1405.6,65.1-1972.5,145.5c-279.6,40.2-360,55.5-348.5,67c15.3,15.3,515.2,86.2,856,120.6C3446.3,4544.8,4675.8,4579.3,5884.1,4542.9z M1745.7,3767.3c609-103.4,1350.1-134,3247.9-134c1635.4,0,2116.1,13.4,2780.6,76.6c323.6,30.6,595.6,74.7,773.7,124.5c67,17.2,126.4,28.7,130.2,21.1c3.8-5.7-44.1-601.3-105.3-1323.3c-61.3-722-111.1-1321.4-111.1-1332.9c-1.9-13.4-65.1-5.7-187.7,23c-231.7,53.6-490.2,93.8-919.2,136l-327.5,32.6l-262.4,283.4c-224.1,241.3-281.5,293-388.8,344.7c-120.7,59.4-139.8,63.2-339,63.2c-197.2,0-218.3-3.8-319.8-57.5c-68.9-36.4-210.7-151.3-375.3-308.3l-264.3-250.9l-582.2-11.5c-553.4-11.5-587.9-9.6-697.1,28.7c-170.4,55.5-421.3,44-570.7-28.7c-91.9-44.1-153.2-57.5-419.4-80.4c-543.9-49.8-1116.5-137.9-1248.6-191.5c-21.1-9.6-32.6-3.8-34.5,11.5c0,15.3-49.8,616.6-111.1,1338.6c-61.3,722-109.2,1317.5-105.3,1323.3c3.8,7.7,63.2-3.8,130.2-21.1C1506.4,3815.2,1646.2,3784.5,1745.7,3767.3z M6144.6,1635.9c26.8-17.2,118.7-105.3,203-195.3c467.3-499.8,676-733.4,676-756.4c0-15.3-32.5-28.7-90-36.4c-120.6-15.3-835-46-1426.7-61.3L5032,574.9l-17.2,49.8c-36.4,93.8,7.7,149.4,452,570.7c467.3,442.4,507.5,474.9,580.2,474.9C6073.7,1670.3,6117.8,1655,6144.6,1635.9z M3791,910.1c90-93.8,191.5-201.1,226-239.4c61.3-72.8,61.3-72.8,15.3-72.8c-111.1,0-856,40.2-930.7,49.8l-80.4,9.6l162.8,155.1c245.1,231.7,291.1,264.3,373.4,264.3C3620.6,1076.7,3643.5,1059.5,3791,910.1z M4624.1,973.3c-5.8-15.3-21.1-65.1-32.6-109.2l-23-80.4l-93.8,93.8l-95.8,93.8l53.6,11.5c28.7,7.7,86.2,13.4,128.3,15.3C4616.4,1000.1,4631.7,994.3,4624.1,973.3z M2477.3,800.9l-91.9-80.4l-204.9,26.8c-296.8,40.2-294.9,46,55.5,95.7C2596,896.7,2586.4,898.6,2477.3,800.9z M7814.5,835.4c122.6-19.2,224.1-38.3,224.1-46c0-13.4-413.7-76.6-501.7-76.6c-59.4,0-63.2,3.8-80.4,101.5L7443,889l72.8-11.5C7556,871.8,7690,852.6,7814.5,835.4z M2071.3,163.2c-15.3-149.4,17.2-317.9,86.2-434.7c59.4-101.5,835-940.3,930.7-1005.4c86.2-57.5,204.9-97.7,327.5-111.1l99.6-11.5l11.5-91.9c23-172.4,113-296.8,547.7-764.1c350.4-377.3,429-450,526.6-497.9c216.4-109.2,476.8-113,677.9-9.6c55.5,26.8,275.8,218.3,553.5,476.8c501.7,471.1,536.2,517.1,578.3,752.6c38.3,224.1-23,434.7-180,618.6c-88.1,103.4-88.1,105.3-46,120.6c180,67,254.7,122.6,599.4,444.3c201.1,185.8,413.6,388.8,476.8,452l111.1,113l224.1,28.7c266.2,34.5,637.7,97.7,725.8,122.6c44.1,13.4,61.3,11.5,61.3-3.8c3.8-88.1-254.7-3133-268.1-3165.6c-13.4-32.5-51.7-47.9-224.1-80.4c-1541.6-306.4-4172.9-310.2-5737.5-11.5c-227.9,44.1-268.1,57.5-281.5,91.9c-13.4,30.6-271.9,3077.5-268.1,3161.7c0,11.5,93.8,1.9,239.4-26.8l239.4-47.9L2071.3,163.2z M2877.5,205.3c158.9-15.3,507.5-36.4,775.6-47.9c268.1-11.5,574.5-26.8,679.8-34.5c181.9-13.4,191.5-15.3,197.2-59.4c3.8-23,1.9-65.1-3.8-90c-11.5-42.1-819.6-821.6-928.8-892.4c-26.8-19.2-78.5-34.5-113-34.5c-76.6,0-107.2,28.7-580.3,536.2C2553.9-39.8,2504.1,25.3,2504.1,100c0,47.9,47.9,134.1,72.8,134.1C2584.5,234.1,2720.5,220.7,2877.5,205.3z M6483.6,8.1c-409.8-386.8-436.6-406-540-379.2c-42.1,9.6-273.8,233.6-432.8,419.4l-61.3,70.9l82.3,1.9c46,1.9,235.6,9.6,419.4,15.3c183.8,7.7,415.6,15.3,513.2,17.2l178.1,3.8L6483.6,8.1z M5076-380.7c46-21.1,848.4-871.3,888.6-944.1c32.5-57.5,30.6-128.3-9.6-189.6c-38.3-63.2-831.1-806.2-913.5-857.9c-70.9-44-139.8-46-197.2-5.7c-24.9,17.2-231.7,231.7-463.4,478.8c-440.5,471.1-467.3,511.3-413.7,614.7c24.9,51.7,785.2,779.4,919.2,882.8C4945.8-355.8,5005.1-348.1,5076-380.7z M2331.7-3395c622.4-97.7,1269.7-153.2,2118-181.9c1089.7-38.3,2489.5,49.8,3395.4,212.6c118.7,21.1,220.2,34.5,226,28.7s0-160.9-13.4-344.7l-26.8-333.2l-57.5-9.6c-32.5-5.8-153.2-30.7-270-57.5c-436.6-103.4-1242.9-187.7-2144.8-226c-1091.6-44.1-2671.5,68.9-3351.3,241.3c-105.3,26.8-204.9,47.9-220.2,47.9c-26.8,0-34.5,47.9-53.6,293c-32.6,423.2-36.4,404.1,40.2,388.8C2006.2-3343.2,2169-3370.1,2331.7-3395z"/></g></g>
</svg>